<?xml version="1.0" encoding="utf-8" standalone="no"?>
<!DOCTYPE svg PUBLIC "-//W3C//DTD SVG 1.1//EN"
  "http://www.w3.org/Graphics/SVG/1.1/DTD/svg11.dtd">
<svg xmlns:xlink="http://www.w3.org/1999/xlink" width="338.4pt" height="338.4pt" viewBox="0 0 338.4 338.4" xmlns="http://www.w3.org/2000/svg" version="1.1">
 <metadata>
  <rdf:RDF xmlns:dc="http://purl.org/dc/elements/1.1/" xmlns:cc="http://creativecommons.org/ns#" xmlns:rdf="http://www.w3.org/1999/02/22-rdf-syntax-ns#">
   <cc:Work>
    <dc:type rdf:resource="http://purl.org/dc/dcmitype/StillImage"/>
    <dc:date>2025-04-24T16:13:59.121752</dc:date>
    <dc:format>image/svg+xml</dc:format>
    <dc:creator>
     <cc:Agent>
      <dc:title>Matplotlib v3.8.0, https://matplotlib.org/</dc:title>
     </cc:Agent>
    </dc:creator>
   </cc:Work>
  </rdf:RDF>
 </metadata>
 <defs>
  <style type="text/css">*{stroke-linejoin: round; stroke-linecap: butt}</style>
 </defs>
 <g id="figure_1">
  <g id="patch_1">
   <path d="M -0 338.4 
L 338.4 338.4 
L 338.4 0 
L -0 0 
z
" style="fill: #ffffff"/>
  </g>
  <g id="axes_1">
   <g id="patch_2">
    <path d="M 7.2 331.2 
L 331.2 331.2 
L 331.2 7.2 
L 7.2 7.2 
z
" style="fill: #ffffff"/>
   </g>
   <g id="matplotlib.axis_1"/>
   <g id="matplotlib.axis_2"/>
   <g id="patch_3">
    <path d="M 16.834701 201.586244 
C 34.898567 197.746651 51.850613 189.835971 66.396739 178.458098 
C 80.942864 167.080225 92.70326 152.532243 100.78015 135.924726 
C 108.857041 119.31721 113.039534 101.083794 113.008342 82.616396 
C 112.97715 64.148998 108.733087 45.929815 100.600142 29.349677 
" clip-path="url(#p6fd08f1003)" style="fill: none; stroke: #ffa500; stroke-width: 2; stroke-linejoin: miter"/>
   </g>
   <g id="patch_4">
    <path d="M 169.2 324.969231 
C 210.510483 324.969231 250.134557 308.556402 279.345479 279.345479 
C 308.556402 250.134557 324.969231 210.510483 324.969231 169.2 
C 324.969231 127.889517 308.556402 88.265443 279.345479 59.054521 
C 250.134557 29.843598 210.510483 13.430769 169.2 13.430769 
C 127.889517 13.430769 88.265443 29.843598 59.054521 59.054521 
C 29.843598 88.265443 13.430769 127.889517 13.430769 169.2 
C 13.430769 210.510483 29.843598 250.134557 59.054521 279.345479 
C 88.265443 308.556402 127.889517 324.969231 169.2 324.969231 
L 169.2 324.969231 
z
" clip-path="url(#p6fd08f1003)" style="fill: none; stroke: #000000; stroke-linejoin: miter"/>
   </g>
   <g id="patch_5">
    <path d="M 324.969231 169.2 
C 277.612926 169.2 231.080883 181.668223 190.06912 205.346376 
C 149.057357 229.024528 114.993537 263.088348 91.315385 304.100111 
" clip-path="url(#p6fd08f1003)" style="fill: none; stroke: #0000ff; stroke-width: 2; stroke-linejoin: miter"/>
   </g>
   <g id="patch_6">
    <path d="M 169.2 324.969231 
C 210.510483 324.969231 250.134557 308.556402 279.345479 279.345479 
C 308.556402 250.134557 324.969231 210.510483 324.969231 169.2 
C 324.969231 127.889517 308.556402 88.265443 279.345479 59.054521 
C 250.134557 29.843598 210.510483 13.430769 169.2 13.430769 
C 127.889517 13.430769 88.265443 29.843598 59.054521 59.054521 
C 29.843598 88.265443 13.430769 127.889517 13.430769 169.2 
C 13.430769 210.510483 29.843598 250.134557 59.054521 279.345479 
C 88.265443 308.556402 127.889517 324.969231 169.2 324.969231 
L 169.2 324.969231 
z
" clip-path="url(#p6fd08f1003)" style="fill: none; stroke: #000000; stroke-linejoin: miter"/>
   </g>
   <g id="patch_7">
    <path d="M 247.084615 304.100111 
C 221.846062 260.385654 190.238195 220.672072 153.3022 186.267558 
C 116.366206 151.863044 74.512152 123.149562 29.118742 101.072955 
" clip-path="url(#p6fd08f1003)" style="fill: none; stroke-dasharray: 7.4,3.2; stroke-dashoffset: 0; stroke: #000000; stroke-width: 2; stroke-linejoin: miter"/>
   </g>
   <g id="patch_8">
    <path d="M 169.2 324.969231 
C 210.510483 324.969231 250.134557 308.556402 279.345479 279.345479 
C 308.556402 250.134557 324.969231 210.510483 324.969231 169.2 
C 324.969231 127.889517 308.556402 88.265443 279.345479 59.054521 
C 250.134557 29.843598 210.510483 13.430769 169.2 13.430769 
C 127.889517 13.430769 88.265443 29.843598 59.054521 59.054521 
C 29.843598 88.265443 13.430769 127.889517 13.430769 169.2 
C 13.430769 210.510483 29.843598 250.134557 59.054521 279.345479 
C 88.265443 308.556402 127.889517 324.969231 169.2 324.969231 
L 169.2 324.969231 
z
" clip-path="url(#p6fd08f1003)" style="fill: none; stroke: #000000; stroke-linejoin: miter"/>
   </g>
  </g>
 </g>
 <defs>
  <clipPath id="p6fd08f1003">
   <rect x="7.2" y="7.2" width="324" height="324"/>
  </clipPath>
 </defs>
</svg>
